<?xml version="1.0" encoding="UTF-8" standalone="no"?>
<svg
   xmlns:dc="http://purl.org/dc/elements/1.1/"
   xmlns:cc="http://creativecommons.org/ns#"
   xmlns:rdf="http://www.w3.org/1999/02/22-rdf-syntax-ns#"
   xmlns:svg="http://www.w3.org/2000/svg"
   xmlns="http://www.w3.org/2000/svg"
   xmlns:sodipodi="http://sodipodi.sourceforge.net/DTD/sodipodi-0.dtd"
   xmlns:inkscape="http://www.inkscape.org/namespaces/inkscape"
   version="1.1"
   width="512"
   height="512"
   x="0"
   y="0"
   viewBox="0 0 96.124 96.123"
   style="enable-background:new 0 0 512 512"
   xml:space="preserve"
   class=""
   id="svg913"
   sodipodi:docname="facebook.svg"
   inkscape:version="1.0.1 (3bc2e813f5, 2020-09-07)"><metadata
     id="metadata919"><rdf:RDF><cc:Work
         rdf:about=""><dc:format>image/svg+xml</dc:format><dc:type
           rdf:resource="http://purl.org/dc/dcmitype/StillImage" /><dc:title></dc:title></cc:Work></rdf:RDF></metadata><defs
     id="defs917" /><sodipodi:namedview
     pagecolor="#ffffff"
     bordercolor="#666666"
     borderopacity="1"
     objecttolerance="10"
     gridtolerance="10"
     guidetolerance="10"
     inkscape:pageopacity="0"
     inkscape:pageshadow="2"
     inkscape:window-width="1920"
     inkscape:window-height="1017"
     id="namedview915"
     showgrid="false"
     inkscape:zoom="1.6152344"
     inkscape:cx="256"
     inkscape:cy="256"
     inkscape:window-x="-8"
     inkscape:window-y="-8"
     inkscape:window-maximized="1"
     inkscape:current-layer="svg913" /><g
     id="g911"
     style="fill:#ff8303;fill-opacity:1">
<g
   id="g879"
   style="fill:#ff8303;fill-opacity:1">
	<path
   d="M72.089,0.02L59.624,0C45.62,0,36.57,9.285,36.57,23.656v10.907H24.037c-1.083,0-1.96,0.878-1.96,1.961v15.803   c0,1.083,0.878,1.96,1.96,1.96h12.533v39.876c0,1.083,0.877,1.96,1.96,1.96h16.352c1.083,0,1.96-0.878,1.96-1.96V54.287h14.654   c1.083,0,1.96-0.877,1.96-1.96l0.006-15.803c0-0.52-0.207-1.018-0.574-1.386c-0.367-0.368-0.867-0.575-1.387-0.575H56.842v-9.246   c0-4.444,1.059-6.7,6.848-6.7l8.397-0.003c1.082,0,1.959-0.878,1.959-1.96V1.98C74.046,0.899,73.17,0.022,72.089,0.02z"
   fill="#ca16a3"
   data-original="#000000"
   style="fill:#ff8303;fill-opacity:1"
   class=""
   id="path877" />
</g>
<g
   id="g881"
   style="fill:#ff8303;fill-opacity:1">
</g>
<g
   id="g883"
   style="fill:#ff8303;fill-opacity:1">
</g>
<g
   id="g885"
   style="fill:#ff8303;fill-opacity:1">
</g>
<g
   id="g887"
   style="fill:#ff8303;fill-opacity:1">
</g>
<g
   id="g889"
   style="fill:#ff8303;fill-opacity:1">
</g>
<g
   id="g891"
   style="fill:#ff8303;fill-opacity:1">
</g>
<g
   id="g893"
   style="fill:#ff8303;fill-opacity:1">
</g>
<g
   id="g895"
   style="fill:#ff8303;fill-opacity:1">
</g>
<g
   id="g897"
   style="fill:#ff8303;fill-opacity:1">
</g>
<g
   id="g899"
   style="fill:#ff8303;fill-opacity:1">
</g>
<g
   id="g901"
   style="fill:#ff8303;fill-opacity:1">
</g>
<g
   id="g903"
   style="fill:#ff8303;fill-opacity:1">
</g>
<g
   id="g905"
   style="fill:#ff8303;fill-opacity:1">
</g>
<g
   id="g907"
   style="fill:#ff8303;fill-opacity:1">
</g>
<g
   id="g909"
   style="fill:#ff8303;fill-opacity:1">
</g>
</g></svg>
